<?xml version="1.0" encoding="utf-8"?>
<!-- Generator: Adobe Illustrator 24.0.0, SVG Export Plug-In . SVG Version: 6.00 Build 0)  -->
<svg version="1.1" id="Layer_1" xmlns="http://www.w3.org/2000/svg" xmlns:xlink="http://www.w3.org/1999/xlink" x="0px" y="0px"
	 viewBox="0 0 595.28 841.89" style="enable-background:new 0 0 595.28 841.89;" xml:space="preserve">
<style type="text/css">
	.st0{fill:none;stroke:#9B9A9A;stroke-width:2;stroke-miterlimit:10;}
	.st1{fill:#9B9A9A;}
	.st2{fill:url(#SVGID_5_);}
	.st3{fill:url(#SVGID_6_);}
	.st4{opacity:0.5;}
</style>
<g>
	
		<radialGradient id="SVGID_2_" cx="302.5719" cy="421.5886" r="8.8461" gradientTransform="matrix(1 0 0 3 0 -843.1771)" gradientUnits="userSpaceOnUse">
		<stop  offset="0" style="stop-color:#ED1C24"/>
		<stop  offset="1" style="stop-color:#A71825"/>
	</radialGradient>
	<path style="fill:url(#SVGID_2_);" d="M310.84,420.91c0,5.56-5.91,10.07-13.2,10.07c-1.15,0-2.27-0.11-3.33-0.33
		c0.06-0.1,3.74-6.41,4.1-7.02c0.31-0.53,1.07-0.56,1.27-0.56c0.03,0,0.05,0,0.05,0c4.14,0,7.49-2.71,7.49-6.05
		c0-1.96-1.16-3.71-2.95-4.81C308.19,413.94,310.84,417.19,310.84,420.91z"/>
	
		<radialGradient id="SVGID_4_" cx="293.863" cy="419.5412" r="9.0365" gradientTransform="matrix(1 0 0 3 0 -839.0824)" gradientUnits="userSpaceOnUse">
		<stop  offset="0" style="stop-color:#00A651"/>
		<stop  offset="1" style="stop-color:#006838"/>
	</radialGradient>
	<path style="fill:url(#SVGID_4_);" d="M303.29,415.03c0,2.27-3.19,4.12-7.13,4.12c0,0-0.11-0.01-0.28,0h-0.02
		c-0.52,0.02-1.57,0.17-2.16,1.03c-0.79,1.18-5.21,8-5.21,8c-2.5-1.83-4.06-4.4-4.06-7.26c0-3.68,2.6-6.91,6.47-8.66
		c1.55-0.7,3.3-1.17,5.18-1.34h0.08C300.1,410.91,303.29,412.76,303.29,415.03z"/>
</g>
</svg>
